<svg width="111" height="13" viewBox="0 0 111 13" fill="none" xmlns="http://www.w3.org/2000/svg">
<path d="M0.585236 12.2328H3.05057V7.83002H9.298V5.63731H3.05057V3.03277H10.4002V0.718262H0.585236V12.2328Z" fill="black"/>
<path d="M22.286 2.19159C21.7407 1.67532 21.0736 1.26927 20.3137 0.990828C19.5538 0.70659 18.7011 0.567383 17.7903 0.567383C16.8796 0.567383 16.0211 0.712391 15.2612 0.990828C14.5013 1.27507 13.84 1.67532 13.2889 2.19159C12.7437 2.70786 12.3144 3.33436 12.0128 4.05366C11.7111 4.77295 11.5603 5.57345 11.5603 6.43777C11.5603 7.30208 11.7111 8.1142 12.0128 8.8393C12.3144 9.5644 12.7437 10.2025 13.2889 10.7246C13.8342 11.2466 14.4955 11.6585 15.2612 11.9485C16.0211 12.2385 16.8738 12.3836 17.7962 12.3836C18.7185 12.3836 19.5654 12.2385 20.3253 11.9485C21.0852 11.6585 21.7523 11.2466 22.2976 10.7246C22.8428 10.2025 23.2721 9.5644 23.5737 8.8393C23.8754 8.1142 24.0262 7.30789 24.0262 6.43777C24.0262 5.56765 23.8754 4.77295 23.5737 4.05366C23.2721 3.33436 22.8428 2.70786 22.2976 2.19159H22.2918H22.286ZM17.7846 10.0459C17.2393 10.0459 16.7346 9.95886 16.2763 9.79064C15.8181 9.62241 15.4178 9.37878 15.0814 9.06554C14.7507 8.7523 14.4839 8.37524 14.2983 7.93438C14.1127 7.49352 14.014 6.99464 14.014 6.43777C14.014 5.88089 14.1069 5.38782 14.2983 4.94696C14.4839 4.51191 14.7507 4.14067 15.0814 3.83903C15.4178 3.53739 15.8181 3.29955 16.2763 3.14293C16.7346 2.98051 17.2451 2.89931 17.7903 2.89931C18.3356 2.89931 18.8403 2.98051 19.3044 3.14293C19.7626 3.29955 20.1629 3.53739 20.4935 3.83903C20.8242 4.14067 21.0852 4.51191 21.2766 4.94696C21.468 5.38202 21.5609 5.88089 21.5609 6.43777C21.5609 6.99464 21.468 7.49352 21.2766 7.93438C21.0852 8.37524 20.8242 8.7581 20.4877 9.06554C20.1571 9.37878 19.7568 9.62241 19.2986 9.79064C18.8403 9.95886 18.3298 10.0459 17.7903 10.0459H17.7846Z" fill="black"/>
<path d="M35.2217 8.00404C35.5349 7.7488 35.796 7.45295 35.999 7.12231C36.2078 6.79747 36.3586 6.43202 36.4573 6.04337C36.5559 5.65472 36.6023 5.24287 36.6023 4.81942C36.6023 4.18713 36.5037 3.60704 36.3006 3.10237C36.0976 2.5919 35.7902 2.15685 35.3783 1.7972C34.9723 1.44335 34.4502 1.17651 33.8353 0.990881C33.2262 0.811057 32.5011 0.718262 31.6716 0.718262H26.1087V12.2328H28.574V9.04817H31.6658L33.6671 12.2328H36.6777L34.311 8.5667C34.6532 8.41008 34.9607 8.22447 35.2275 8.00985L35.2217 8.00404ZM34.0267 4.81361C34.0267 5.10945 33.9803 5.3821 33.8875 5.61993C33.7947 5.85776 33.6555 6.05497 33.4699 6.21739C33.2784 6.38561 33.0406 6.51325 32.7564 6.60607C32.4663 6.69888 32.1183 6.75109 31.7296 6.75109H28.574V3.00958H31.7296C32.5127 3.00958 33.0986 3.172 33.4757 3.48524C33.8469 3.79849 34.0267 4.22773 34.0267 4.8078V4.81361Z" fill="black"/>
<path d="M52.276 0.712349L49.3292 8.07935L48.9521 9.36133L48.4591 8.09096L47.4033 5.46319L49.3814 0.706543H46.8232L46.1968 2.58022L45.5239 0.706543H42.9657L44.9438 5.46319L43.8997 8.05035L43.5052 9.3671L42.9947 8.03874L40.0711 0.712349H37.3796L42.2116 12.2269H44.5435L45.5471 9.90661L46.1736 8.15476L46.8 9.91238L47.7862 12.2269H50.1239L54.9501 0.712349H52.2586H52.276Z" fill="black"/>
<path d="M78.043 8.00404C78.3563 7.7488 78.6173 7.45295 78.8203 7.12231C79.0292 6.79747 79.18 6.43202 79.2786 6.04337C79.3772 5.65472 79.4236 5.24287 79.4236 4.81942C79.4236 4.18713 79.325 3.60704 79.122 3.10237C78.919 2.5919 78.6115 2.15685 78.1997 1.7972C77.7936 1.44335 77.2715 1.17651 76.6567 0.990881C76.0476 0.811057 75.3225 0.718262 74.493 0.718262H68.93V12.2328H71.3953V9.04817H74.4872L76.4884 12.2328H79.499L77.1323 8.5667C77.4746 8.41008 77.782 8.22447 78.0488 8.00985L78.043 8.00404ZM76.8481 4.81361C76.8481 5.10945 76.8017 5.3821 76.7089 5.61993C76.616 5.85776 76.4768 6.05497 76.2912 6.21739C76.0998 6.38561 75.862 6.51325 75.5777 6.60607C75.2877 6.69888 74.9396 6.75109 74.551 6.75109H71.3953V3.00958H74.551C75.3341 3.00958 75.92 3.172 76.297 3.48524C76.6683 3.79849 76.8481 4.22773 76.8481 4.8078V4.81361Z" fill="black"/>
<path d="M90.8744 2.24382C90.3117 1.75075 89.5924 1.36789 88.7339 1.10685C87.887 0.845816 86.8718 0.712402 85.7233 0.712402H81.6743V12.227H85.7407C86.8892 12.2328 87.9044 12.0877 88.7513 11.7977C89.604 11.5076 90.3233 11.1016 90.886 10.5853C91.4486 10.0691 91.8779 9.44258 92.1505 8.73489C92.4232 8.02719 92.5624 7.2499 92.5624 6.42038C92.5624 5.55027 92.4232 4.74974 92.1447 4.04785C91.8663 3.34016 91.437 2.73108 90.8686 2.23801L90.8744 2.24382ZM86.2569 9.94146H84.1397V3.01533H86.2569C86.8834 3.01533 87.4345 3.09653 87.9044 3.25895C88.3626 3.41557 88.7571 3.6476 89.0645 3.93763C89.3662 4.22767 89.604 4.58733 89.7548 4.99919C89.9114 5.41684 89.9868 5.90412 89.9868 6.42619C89.9868 6.94826 89.9056 7.4529 89.7548 7.88796C89.604 8.31722 89.3662 8.68848 89.0645 8.99013C88.7571 9.29177 88.3684 9.52958 87.9044 9.6978C87.4345 9.86603 86.8834 9.94723 86.2627 9.94723L86.2569 9.94146Z" fill="black"/>
<path d="M97.1682 0.567383H94.6913V12.082H97.1682V0.567383Z" fill="black"/>
<path d="M108.375 0.567383V4.11746L101.942 0.567383H99.5929V12.082H102.052V3.42136L108.37 6.88444V12.082H110.835V0.567383H108.37H108.375Z" fill="black"/>
<path d="M59.904 0.712402L54.7703 12.227H57.3807L61.1686 3.61279L65.0725 12.227H67.677L62.3867 0.712402H59.904Z" fill="black"/>
</svg>
